<svg id="Layer_1" data-name="Layer 1" xmlns="http://www.w3.org/2000/svg" viewBox="0 0 30 30"><title>instagram-02</title><g id="Page-1"><g id="Icons-_-Social-_-Instagram" data-name="Icons-/-Social-/-Instagram"><g id="Instagram"><path id="path-1" d="M21.5,9.65a1.2,1.2,0,1,1-1.2-1.2,1.2,1.2,0,0,1,1.2,1.2M15,18.31A3.33,3.33,0,1,1,18.31,15,3.33,3.33,0,0,1,15,18.31m0-8.45A5.12,5.12,0,1,0,20.1,15,5.12,5.12,0,0,0,15,9.85M23.1,19a5.52,5.52,0,0,1-.34,1.85,3.3,3.3,0,0,1-1.89,1.89A5.52,5.52,0,0,1,19,23.1c-1.05,0-1.37.06-4,.06s-3,0-4-.06a5.52,5.52,0,0,1-1.85-.34A3.3,3.3,0,0,1,7.2,20.86,5.52,5.52,0,0,1,6.86,19c0-1.05-.06-1.37-.06-4s0-3,.06-4A5.52,5.52,0,0,1,7.2,9.09,3.3,3.3,0,0,1,9.09,7.2a5.52,5.52,0,0,1,1.85-.34c1.05,0,1.37-.06,4-.06s3,0,4,.06a5.52,5.52,0,0,1,1.85.34,3.3,3.3,0,0,1,1.89,1.89,5.52,5.52,0,0,1,.34,1.85c0,1.05.06,1.37.06,4s0,3-.06,4m1.8-8.15a7.32,7.32,0,0,0-.46-2.42,5.1,5.1,0,0,0-2.92-2.92,7.33,7.33,0,0,0-2.42-.46C18,5,17.69,5,15,5s-3.05,0-4.11.06a7.33,7.33,0,0,0-2.42.46A5.1,5.1,0,0,0,5.52,8.44a7.33,7.33,0,0,0-.46,2.42C5,11.93,5,12.27,5,15s0,3.05.06,4.11a7.33,7.33,0,0,0,.46,2.42,5.1,5.1,0,0,0,2.92,2.92,7.33,7.33,0,0,0,2.42.46c1.06,0,1.4.06,4.11.06s3.05,0,4.11-.06a7.33,7.33,0,0,0,2.42-.46,5.1,5.1,0,0,0,2.92-2.92,7.32,7.32,0,0,0,.46-2.42c0-1.06.06-1.4.06-4.11s0-3-.06-4.11"/></g></g></g></svg>