<?xml version="1.0" encoding="utf-8"?>
<!-- Generator: Adobe Illustrator 21.1.0, SVG Export Plug-In . SVG Version: 6.00 Build 0)  -->
<svg version="1.1" id="Layer_1" xmlns="http://www.w3.org/2000/svg" xmlns:xlink="http://www.w3.org/1999/xlink" x="0px" y="0px"
	 viewBox="0 0 30 30" style="enable-background:new 0 0 30 30;" xml:space="preserve">
<title>Icons / Social / Instagram</title>
<desc>Created with Sketch.</desc>
<g id="Page-1">
	<g id="Icons-_x2F_-Social-_x2F_-Instagram" transform="translate(-5.000000, -5.000000)">
		<g id="Instagram">
			<path id="path-1_1_" d="M26.5,14.7c0,0.7-0.5,1.2-1.2,1.2c-0.7,0-1.2-0.5-1.2-1.2c0-0.7,0.5-1.2,1.2-1.2
				C26,13.5,26.5,14,26.5,14.7 M20,23.3c-1.8,0-3.3-1.5-3.3-3.3c0-1.8,1.5-3.3,3.3-3.3c1.8,0,3.3,1.5,3.3,3.3
				C23.3,21.8,21.8,23.3,20,23.3 M20,14.9c-2.8,0-5.1,2.3-5.1,5.1c0,2.8,2.3,5.1,5.1,5.1c2.8,0,5.1-2.3,5.1-5.1
				C25.1,17.1,22.8,14.9,20,14.9 M28.1,24c0,1-0.2,1.5-0.3,1.9c-0.2,0.5-0.4,0.8-0.7,1.1c-0.3,0.3-0.7,0.6-1.1,0.7
				c-0.4,0.1-0.9,0.3-1.9,0.3c-1.1,0-1.4,0.1-4,0.1c-2.7,0-3,0-4-0.1c-1,0-1.5-0.2-1.9-0.3c-0.5-0.2-0.8-0.4-1.1-0.7
				c-0.3-0.3-0.6-0.7-0.7-1.1c-0.1-0.4-0.3-0.9-0.3-1.9c0-1.1-0.1-1.4-0.1-4c0-2.7,0-3,0.1-4c0-1,0.2-1.5,0.3-1.9
				c0.2-0.5,0.4-0.8,0.7-1.1c0.3-0.3,0.7-0.6,1.1-0.7c0.4-0.1,0.9-0.3,1.9-0.3c1.1,0,1.4-0.1,4-0.1c2.7,0,3,0,4,0.1
				c1,0,1.5,0.2,1.9,0.3c0.5,0.2,0.8,0.4,1.1,0.7c0.3,0.3,0.6,0.7,0.7,1.1c0.1,0.4,0.3,0.9,0.3,1.9c0,1.1,0.1,1.4,0.1,4
				C28.2,22.6,28.2,23,28.1,24 M29.9,15.9c0-1.1-0.2-1.8-0.5-2.4c-0.3-0.7-0.6-1.2-1.2-1.8s-1.1-0.9-1.8-1.2
				c-0.6-0.2-1.4-0.4-2.4-0.5C23,10,22.7,10,20,10c-2.7,0-3.1,0-4.1,0.1c-1.1,0-1.8,0.2-2.4,0.5c-0.7,0.3-1.2,0.6-1.8,1.2
				s-0.9,1.1-1.2,1.8c-0.2,0.6-0.4,1.4-0.5,2.4c0,1.1-0.1,1.4-0.1,4.1c0,2.7,0,3.1,0.1,4.1c0,1.1,0.2,1.8,0.5,2.4
				c0.3,0.7,0.6,1.2,1.2,1.8c0.6,0.6,1.1,0.9,1.8,1.2c0.6,0.2,1.4,0.4,2.4,0.5c1.1,0,1.4,0.1,4.1,0.1c2.7,0,3.1,0,4.1-0.1
				c1.1,0,1.8-0.2,2.4-0.5c0.7-0.3,1.2-0.6,1.8-1.2c0.6-0.6,0.9-1.1,1.2-1.8c0.2-0.6,0.4-1.4,0.5-2.4c0-1.1,0.1-1.4,0.1-4.1
				C30,17.3,29.9,16.9,29.9,15.9"/>
		</g>
	</g>
</g>
</svg>
