<?xml version="1.0" encoding="UTF-8"?>
<svg width="23px" height="18px" viewBox="0 0 23 18" version="1.1" xmlns="http://www.w3.org/2000/svg" xmlns:xlink="http://www.w3.org/1999/xlink">
    <!-- Generator: Sketch 46.2 (44496) - http://www.bohemiancoding.com/sketch -->
    <title>Icons / Social / Twitter</title>
    <desc>Created with Sketch.</desc>
    <defs>
        <path d="M10.9534059,23.9690495 C19.2971485,23.9690495 23.8599406,17.0565149 23.8599406,11.0625149 C23.8599406,10.8660594 23.8559604,10.6705545 23.8469901,10.4760594 C24.7326139,9.83578218 25.5025743,9.03689109 26.1099406,8.12738614 C25.2971485,8.48839604 24.4224554,8.73172277 23.5049307,8.84144554 C24.4414059,8.27994059 25.1605149,7.39134653 25.499604,6.33213861 C24.6229505,6.85176238 23.6525545,7.22970297 22.6192475,7.43322772 C21.7914851,6.55152475 20.6126337,6 19.3081386,6 C16.8028119,6 14.7712475,8.03162376 14.7712475,10.5358812 C14.7712475,10.8919604 14.8111089,11.2380594 14.8889307,11.570198 C11.1189703,11.3806931 7.77590099,9.57552475 5.53885149,6.83079208 C5.14891089,7.5010099 4.92447525,8.27994059 4.92447525,9.11073267 C4.92447525,10.6845149 5.72538614,12.0738416 6.94308911,12.8866337 C6.19908911,12.8637624 5.49994059,12.6592871 4.88859406,12.3191881 C4.88758416,12.3380792 4.88758416,12.3570891 4.88758416,12.3769901 C4.88758416,14.5741188 6.45144554,16.4082178 8.52685149,16.8241782 C8.14588119,16.9278416 7.7449505,16.9837426 7.33106931,16.9837426 C7.03885149,16.9837426 6.75459406,16.9548119 6.47835644,16.9019406 C7.05584158,18.7041386 8.73037624,20.0155842 10.7160198,20.0525347 C9.16320792,21.2692871 7.20738614,21.9943366 5.08207921,21.9943366 C4.7160198,21.9943366 4.3550099,21.9734257 4,21.9315446 C6.00762376,23.2180396 8.39128713,23.9690495 10.9534059,23.9690495" id="path-1"></path>
    </defs>
    <g id="Page-1" stroke="none" stroke-width="1" fill="none" fill-rule="evenodd">
        <g id="Icons-/-Social-/-Twitter" transform="translate(-4.000000, -6.000000)">
            <rect id="bg" x="0" y="0" width="30" height="30"></rect>
            <mask id="mask-2" fill="white">
                <use xlink:href="#path-1"></use>
            </mask>
            <use id="twitter" fill="#000000" xlink:href="#path-1"></use>
        </g>
    </g>
</svg>