<svg xmlns="http://www.w3.org/2000/svg" viewBox="0 0 1000 1000"><defs><style>.cls-1{fill:#fff;}</style></defs><title>Asset 1</title><g id="Layer_2" data-name="Layer 2"><g id="Layer_1-2" data-name="Layer 1"><rect class="cls-1" width="1000" height="1000"/><path d="M93.82,53.5h33.4c12.6,0,25.8,0,34.4,12.6,6,8.6,8.2,19.2,8.2,29.8,0,14.8-4.8,28.6-13.8,35.4-8.8,6.4-20.6,6.4-27.4,6.4h-8v49.2H93.82Zm26.8,60.8h6.6c9.2,0,14.2-3.2,14.2-20.6,0-10.8-2.8-19.2-14.2-19.2h-6.6Z"/><path d="M177.82,53.5h25.6v47.6c2.4-6.4,6.2-14.8,20-14.8,21,0,21.6,16.8,21.6,29.4v71.2h-25.6V118.5c0-5.8,0-11-7.6-11-7.8,0-8.4,4.8-8.4,12v67.4h-25.6Z"/><path d="M324.21,137.3c0,27-7.6,51.6-35.2,51.6-16.2,0-23.8-7.8-28.6-17.6-6.4-13.4-6.4-31.4-6.4-34.4,0-17.4,4-50.6,35.2-50.6C318.42,86.3,324.21,115.3,324.21,137.3Zm-43.6-3.2c0,12,.2,20,.8,26.2.6,8.2,3.4,10.6,7.6,10.6a6.47,6.47,0,0,0,6.6-4.8c2-5.6,2-22.2,2-29.4s-.2-13.2-.8-21.4c-.6-10.2-4-11-8-11C281,104.3,280.62,112.5,280.62,134.1Z"/><path d="M340.82,58.1,363,56.5V88.3h15.4v20.6H363v41.6c0,10.8,1,15.4,10.2,15.4a25.5,25.5,0,0,0,6.4-.6v20.4a60.48,60.48,0,0,1-16.4,2.6c-8,0-16.8-2.8-20.4-7.8-5-6.8-5.4-14.2-5.4-29V108.9h-10.6V88.3h11.8Z"/><path d="M453.21,137.3c0,27-7.6,51.6-35.2,51.6-16.2,0-23.8-7.8-28.6-17.6-6.4-13.4-6.4-31.4-6.4-34.4,0-17.4,4-50.6,35.2-50.6C447.41,86.3,453.21,115.3,453.21,137.3Zm-43.6-3.2c0,12,.2,20,.8,26.2.6,8.2,3.4,10.6,7.6,10.6a6.47,6.47,0,0,0,6.6-4.8c2-5.6,2-22.2,2-29.4s-.2-13.2-.8-21.4c-.6-10.2-4-11-8-11C410,104.3,409.61,112.5,409.61,134.1Z"/><path d="M539,90.1a11.38,11.38,0,0,0-5-1.4c-6.2,0-8,5.2-9.2,9.4,2,2.8,6,7.6,6,18.8,0,19.2-12,30.8-30.4,30.8a63.44,63.44,0,0,1-11.2-1.2c-4,2-4.8,6.2-4.8,8.2,0,6.4,4.4,6.8,19,8.2,16.4,1.6,34.2,3.4,34.2,27.4,0,22.8-18.8,31-41,31-20.8,0-36.4-5.4-36.4-22.2,0-13.4,8.4-17.6,13.2-20-4.2-2.6-10-7-10-16a24.24,24.24,0,0,1,13.4-21.6c-3.6-2-13-7-13-23.6,0-11.6,3.8-20,11-25.2,7-4.8,15.2-6.4,22.6-6.4,6.6,0,13.8,1.2,19.8,4.4,0-4.8,0-19.2,15.4-19.2a23.71,23.71,0,0,1,6.4,1Zm-58.4,102.6c0,7,6,9.8,18,9.8,5.4,0,15.4-.8,15.4-9,0-6-5-7.4-11-8.2-2.6-.2-16-1-19-1.4A12.91,12.91,0,0,0,480.61,192.7Zm8.8-76.6c0,12,2.6,16.4,8.2,16.4,7,0,7.6-7.6,7.6-15.6,0-12.2-2.8-15.8-8-15.8C489.41,101.1,489.41,111.9,489.41,116.1Z"/><path d="M542.81,88.3h22.8v23.8c2.4-8.4,7.2-25.8,20.6-25.8a35.85,35.85,0,0,1,6.8.6v27c-14.4-1-24.6,3.2-24.6,27.2v45.8h-25.6Z"/><path d="M637.81,186.9c-1-2.2-1.8-3.6-1.6-12.2-4.4,8-12,14.2-21,14.2-3.8,0-21-1.2-21-27.4,0-5,.2-17,11.2-26.6,8-6.8,17.6-8.4,29.2-9.2-.2-15-.8-20.8-6.8-20.8-7.2,0-8,9.6-8.4,14.6L597,116.9c2.2-18.8,12.2-30.6,31.8-30.6,5.8,0,18.4,1.4,25.6,11,4.6,6.2,4.8,17.2,4.8,28.4v40c0,14.6,0,16.2,1.2,21.2Zm-18-28c0,7,1.4,12.2,6.4,12.2,8.6,0,8.6-11,8.4-31.6C622.61,141.5,619.81,148.5,619.81,158.9Z"/><path d="M671.81,88.3H694v11c2.4-4,7.6-12.2,18.2-12.2,23.4,0,26.2,33.4,26.2,48.6,0,9-.8,28.2-8,41.6a20.22,20.22,0,0,1-18.2,10.8c-8.8,0-12.8-4.8-15.4-8v40.2h-25Zm25,65.4c0,9.4,0,16.4,6.6,16.4,2.2,0,5-.8,6.4-5.6,2-7.4,2-22,2-27.2,0-12.8-.4-17.8-1-22.2s-2.4-9.2-7.2-9.2c-6.8,0-6.8,8.2-6.8,12.2Z"/><path d="M748.21,53.5h25.6v47.6c2.4-6.4,6.2-14.8,20-14.8,21,0,21.6,16.8,21.6,29.4v71.2h-25.6V118.5c0-5.8,0-11-7.6-11-7.8,0-8.4,4.8-8.4,12v67.4h-25.6Z"/><path d="M853.61,52.3V79.5H828V52.3ZM828,88.3h25.6v98.6H828Z"/><path d="M909,125.3c-.6-11-1.2-20.4-9.6-20.4-5.6,0-8.2,5-8.8,13-.6,6.8-.8,15-.8,19.6,0,7.2,0,20.8,2.6,27,1.6,3.8,4.2,4.6,7,4.6,6,0,9.4-3.6,10.8-20.8l21.6,1.8c-.4,6.6-1,16.4-5.4,24-3.4,5.6-10.8,14.8-27.4,14.8-25.6,0-35.8-19.4-35.8-50.8,0-13.2,2.2-31.4,13-42.8,6-6.6,14.4-9,23.2-9,17.4,0,31.8,10.4,32.6,37.6Z"/><path d="M391.71,336.9h-27.4V228.7h-21.8V203.5h71.6v25.2h-22.4Z"/><path d="M412.71,238.3h22.8v23.8c2.4-8.4,7.2-25.8,20.6-25.8a35.85,35.85,0,0,1,6.8.6v27c-14.4-1-24.6,3.2-24.6,27.2v45.8h-25.6Z"/><path d="M535.31,336.9h-22.8v-14c-4,8.4-9.4,16-22.2,16-22.2,0-22.2-17-22.2-32.8V238.3h25.6v67.8c0,5.6.2,11.8,7.4,11.8s8.6-4,8.6-16.4V238.3h25.6Z"/><path d="M555.31,208.1l22.2-1.6v31.8h15.4v20.6h-15.4v41.6c0,10.8,1,15.4,10.2,15.4a25.5,25.5,0,0,0,6.4-.6v20.4a60.48,60.48,0,0,1-16.4,2.6c-8,0-16.8-2.8-20.4-7.8-5-6.8-5.4-14.2-5.4-29V258.9h-10.6V238.3h11.8Z"/><path d="M601.11,203.5h25.6v47.6c2.4-6.4,6.2-14.8,20-14.8,21,0,21.6,16.8,21.6,29.4v71.2h-25.6V268.5c0-5.8,0-11-7.6-11-7.8,0-8.4,4.8-8.4,12v67.4h-25.6Z"/><rect class="cls-1" x="107.5" y="390.75" width="795" height="528.33"/><path d="M900,393.25V916.58H110V393.25H900m5-5H105V921.58H905V388.25Z"/></g></g></svg>